HIERARCHY
ROOT wineglass3
{
	OFFSET 0.000000 0.000000 0.000000
	CHANNELS 6 Xposition Yposition Zposition Yrotation Xrotation Zrotation
	End Site
	{
		OFFSET 0.000000 0.000000 0.000000
	}
}
MOTION
Frames: 85
Frame Time: 0.008333334
2.416856 5.662558 2.535975 160.404700 -17.148410 38.219000 
2.424321 5.658353 2.528768 160.446100 -16.564760 38.343590 
2.432193 5.653316 2.521291 160.411600 -15.886170 38.872230 
2.444551 5.646178 2.514222 160.455600 -15.119720 38.855330 
2.455771 5.638581 2.505563 160.280400 -14.298860 39.645500 
2.471007 5.629455 2.497219 160.159200 -13.414340 40.161950 
2.487615 5.618980 2.489456 160.042900 -12.346680 41.101820 
2.505142 5.607801 2.481050 159.619900 -11.131230 41.552820 
2.524372 5.596735 2.472032 159.603200 -9.772095 42.240860 
2.543341 5.585406 2.463771 159.409600 -8.335693 42.952710 
2.563964 5.573182 2.455479 159.367400 -6.690460 43.457960 
2.583464 5.559333 2.445642 159.031400 -5.164185 44.222650 
2.604384 5.545960 2.437010 158.891600 -3.475891 44.861810 
2.624395 5.532065 2.429156 158.577800 -1.662598 45.477900 
2.644791 5.517287 2.422128 158.310000 0.272339 46.006980 
2.664878 5.501462 2.415852 157.869600 2.262575 46.453730 
2.684874 5.485496 2.409705 157.538400 4.434356 46.919510 
2.704055 5.468121 2.404946 157.091100 6.572311 47.349830 
2.722556 5.449828 2.400472 156.699400 8.701478 47.657510 
2.740823 5.431061 2.396613 156.410300 10.886580 48.196380 
2.757456 5.411219 2.394550 156.007700 12.920340 48.718810 
2.773936 5.393245 2.394806 155.535800 14.830320 48.914810 
2.788287 5.376496 2.394941 155.173100 16.543770 49.490150 
2.800900 5.361621 2.396737 154.703000 18.165350 49.402890 
2.812099 5.347796 2.397496 154.242000 19.652800 49.500600 
2.822160 5.336045 2.399508 153.831500 21.065060 49.563570 
2.831423 5.324655 2.401939 153.327200 22.221750 49.565320 
2.839516 5.315428 2.406672 152.594400 23.234100 49.514000 
2.845765 5.310156 2.413650 151.663300 24.259290 49.089160 
2.850877 5.308948 2.422434 150.253500 25.165650 48.381450 
2.853978 5.312156 2.432565 148.641700 26.139550 47.140050 
2.855225 5.319637 2.443937 146.485900 26.853560 45.496690 
2.853051 5.331522 2.455459 143.887300 27.609500 43.576920 
2.848564 5.346740 2.467166 140.877900 28.141360 41.062240 
2.842010 5.363842 2.478447 137.587000 28.610610 38.225390 
2.834280 5.380929 2.487364 134.118200 28.869550 35.267600 
2.825806 5.396500 2.493804 130.561900 29.094300 32.337460 
2.818564 5.410444 2.499375 127.228200 29.250620 29.340440 
2.812532 5.423588 2.504310 123.853300 29.425070 26.732070 
2.805645 5.436467 2.509203 120.282100 29.473210 24.014330 
2.798860 5.450240 2.513720 116.744300 29.616380 21.130280 
2.790918 5.464136 2.517325 113.247000 29.622120 18.382590 
2.782763 5.477688 2.519809 109.786200 29.453670 15.735050 
2.774308 5.489726 2.518985 106.435900 29.393550 12.876910 
2.766841 5.499846 2.516088 103.321200 29.258720 10.313230 
2.761710 5.505724 2.512801 100.670700 29.450290 7.742163 
2.759171 5.508872 2.510516 98.422580 29.655890 5.978944 
2.758719 5.509890 2.510910 96.444790 30.271540 4.463940 
2.760186 5.509299 2.512691 95.200430 30.734320 3.689138 
2.763192 5.506721 2.516019 94.110690 31.542060 3.152148 
2.767024 5.502918 2.519476 93.299030 32.428020 2.791564 
2.773428 5.495727 2.523098 92.812370 33.324740 2.645039 
2.781600 5.484506 2.527653 92.814770 34.490850 3.020131 
2.792155 5.469029 2.533609 93.094890 35.767910 3.563700 
2.806481 5.449616 2.540788 93.627090 37.249730 4.386690 
2.821057 5.427855 2.548298 94.366750 38.977150 5.402531 
2.835636 5.404009 2.555669 95.221810 40.610480 6.526171 
2.850579 5.378761 2.561843 96.349470 42.225510 7.930793 
2.864184 5.351931 2.566807 97.393610 43.799270 9.135440 
2.876811 5.324059 2.570516 98.659840 45.399930 10.573490 
2.890087 5.294787 2.574656 99.986080 47.067710 11.820660 
2.902616 5.265052 2.579504 101.486800 48.802560 13.178050 
2.913455 5.235457 2.585281 103.067700 50.322060 14.979770 
2.925106 5.206770 2.591839 104.616600 51.643950 16.491650 
2.935320 5.177510 2.598508 105.888300 53.001500 18.024960 
2.945004 5.147344 2.606457 107.359300 54.429490 20.021950 
2.954988 5.117364 2.614978 108.759500 55.713380 21.551200 
2.965112 5.086660 2.624937 110.015500 56.897890 22.823480 
2.973876 5.054973 2.635962 111.333500 58.157940 24.295120 
2.981215 5.022047 2.645872 112.930500 59.461150 26.394820 
2.989236 4.988040 2.655986 114.644300 60.665040 28.314190 
2.996940 4.951640 2.663965 117.057900 61.895770 30.731700 
3.003079 4.913604 2.670328 119.933300 63.180490 33.894980 
3.009578 4.873549 2.674429 123.488300 64.311820 37.433100 
3.015321 4.831464 2.676934 127.865300 65.212520 41.741110 
3.018891 4.788391 2.678772 132.577000 66.057810 46.677670 
3.022805 4.744851 2.680818 137.564000 66.574440 51.544880 
3.025624 4.701416 2.682928 142.920400 67.017480 57.079360 
3.027157 4.657697 2.684793 147.973100 67.253740 62.747130 
3.028707 4.613998 2.685577 152.928600 67.402210 67.890600 
3.028033 4.568330 2.687308 157.900800 67.506010 72.775120 
3.026126 4.521763 2.686911 162.660700 67.519260 77.733770 
3.022165 4.472085 2.686846 168.052900 67.328740 83.185980 
3.015221 4.419066 2.685251 173.538100 66.833970 89.280530 
3.007978 4.365541 2.683366 178.844800 66.238350 94.792760 
